<svg width="38" height="30" viewBox="0 0 38 30" fill="none" xmlns="http://www.w3.org/2000/svg">
<g id="Vector">
<mask id="path-1-inside-1_3566_1584" fill="white">
<path d="M14.4657 0L13.4067 0.127457C13.4067 0.127457 8.65549 0.64678 5.18566 3.43322H5.14498L5.10159 3.4739C4.32329 4.18983 3.9843 5.06983 3.44871 6.35661C2.81736 7.90476 2.27989 9.48956 1.83922 11.1024C0.833117 14.7403 0.0168457 19.1471 0.0168457 23.1783L0.0168457 23.5173L0.186337 23.8563C1.44193 26.0597 3.67108 27.463 5.73752 28.4325C7.80261 29.402 9.58837 29.9159 10.8223 29.958L11.6277 30L12.0507 29.28L13.5341 26.6522C15.107 27.0075 16.9185 27.2461 18.9999 27.2461C21.0812 27.2461 22.8928 27.0075 24.4657 26.6522L25.949 29.28L26.3734 30L27.1775 29.958C28.4114 29.9159 30.1972 29.402 32.2623 28.4325C34.3287 27.463 36.5579 26.0597 37.8134 23.8563L37.9829 23.5173V23.1783C37.9829 19.1471 37.1667 14.7403 36.1606 11.1024C35.7199 9.48956 35.1824 7.90476 34.5511 6.35661C34.0155 5.06847 33.6765 4.18983 32.8982 3.47525L32.8562 3.43186H32.8128C29.3457 0.646779 24.5931 0.127457 24.5931 0.127457L23.5341 0L23.1518 0.974915C23.1518 0.974915 22.7599 1.96475 22.5172 3.09424C21.3515 2.9334 20.1766 2.84825 18.9999 2.83932C18.2745 2.83932 17.0202 2.88678 15.4826 3.09424C15.2385 1.96475 14.8467 0.974915 14.8467 0.974915L14.4657 0ZM12.6012 3.09424C12.6596 3.28407 12.7179 3.44814 12.7707 3.60271C11.0175 4.03661 9.14769 4.6983 7.43244 5.76271L8.87244 8.05152C12.3897 5.86847 17.4419 5.55119 18.9999 5.55119C20.5565 5.55119 25.6101 5.86847 29.1273 8.05152L30.5673 5.76271C28.8521 4.6983 26.9823 4.03661 25.229 3.60136C25.2819 3.44814 25.3402 3.28407 25.3985 3.09288C26.6636 3.3478 29.0799 3.93085 31.0758 5.50915C31.065 5.51458 31.5843 6.2983 32.0507 7.41559C32.528 8.56542 33.0568 10.0963 33.5341 11.8224C34.4507 15.1322 35.1707 19.1634 35.229 22.7119C34.3748 24.0149 32.7924 25.1905 31.1179 25.9756C30.0677 26.4719 28.9566 26.8275 27.8134 27.0332L27.1355 25.8902C27.5382 25.741 27.9355 25.5783 28.2799 25.4237C30.3667 24.5071 31.5002 23.5173 31.5002 23.5173L29.7199 21.4834C29.7199 21.4834 28.9579 22.1831 27.1775 22.9668C25.3999 23.7505 22.6812 24.5342 18.9999 24.5342C15.3185 24.5342 12.6012 23.7505 10.8223 22.9668C9.04193 22.1831 8.27989 21.4834 8.27989 21.4834L6.49956 23.5173C6.49956 23.5173 7.63311 24.5071 9.71989 25.4237C10.0643 25.5783 10.4616 25.7424 10.8643 25.8902L10.1863 27.0346C9.04257 26.8281 7.93106 26.4715 6.88057 25.9742C5.20735 25.1905 3.62362 24.0149 2.7721 22.7119C2.82905 19.1634 3.54905 15.1322 4.46701 11.8224C4.87264 10.3252 5.36754 8.85363 5.94905 7.41559C6.41549 6.2983 6.93481 5.51458 6.92396 5.50915C8.91989 3.93085 11.3362 3.3478 12.6012 3.09424ZM14.2541 12.3308C13.206 12.3308 12.2785 12.9288 11.7118 13.6868C11.145 14.4447 10.8643 15.3763 10.8643 16.3986C10.8643 17.421 11.145 18.3525 11.7118 19.1105C12.2785 19.8685 13.206 20.4664 14.2541 20.4664C15.3023 20.4664 16.2297 19.8685 16.7965 19.1105C17.3633 18.3525 17.644 17.421 17.644 16.3986C17.644 15.3763 17.3633 14.4447 16.7965 13.6868C16.2297 12.9288 15.3023 12.3308 14.2541 12.3308ZM23.7457 12.3308C22.6975 12.3308 21.7701 12.9288 21.2033 13.6868C20.6365 14.4447 20.3558 15.3763 20.3558 16.3986C20.3558 17.421 20.6365 18.3525 21.2033 19.1105C21.7701 19.8685 22.6975 20.4664 23.7457 20.4664C24.7938 20.4664 25.7212 19.8685 26.288 19.1105C26.8548 18.3525 27.1355 17.421 27.1355 16.3986C27.1355 15.3763 26.8548 14.4447 26.288 13.6868C25.7212 12.9288 24.7938 12.3308 23.7457 12.3308ZM14.2541 15.0427C14.3287 15.0427 14.4236 15.0698 14.5931 15.2976C14.7626 15.5241 14.9321 15.9214 14.9321 16.3986C14.9321 16.8759 14.7626 17.2732 14.5931 17.501C14.4236 17.7275 14.3287 17.7546 14.2541 17.7546C14.1796 17.7546 14.0846 17.7275 13.9151 17.4997C13.6909 17.1766 13.5725 16.7919 13.5762 16.3986C13.5762 15.9214 13.7457 15.5241 13.9151 15.2963C14.0846 15.0698 14.1796 15.0427 14.2541 15.0427ZM23.7457 15.0427C23.8202 15.0427 23.9151 15.0698 24.0846 15.2976C24.2541 15.5241 24.4236 15.9214 24.4236 16.3986C24.4236 16.8759 24.2541 17.2732 24.0846 17.501C23.9151 17.7275 23.8202 17.7546 23.7457 17.7546C23.6711 17.7546 23.5762 17.7275 23.4067 17.4997C23.1824 17.1766 23.064 16.7919 23.0677 16.3986C23.0677 15.9214 23.2372 15.5241 23.4067 15.2963C23.5762 15.0698 23.6711 15.0427 23.7457 15.0427Z"/>
</mask>
<path d="M14.4657 0L13.4067 0.127457C13.4067 0.127457 8.65549 0.64678 5.18566 3.43322H5.14498L5.10159 3.4739C4.32329 4.18983 3.9843 5.06983 3.44871 6.35661C2.81736 7.90476 2.27989 9.48956 1.83922 11.1024C0.833117 14.7403 0.0168457 19.1471 0.0168457 23.1783L0.0168457 23.5173L0.186337 23.8563C1.44193 26.0597 3.67108 27.463 5.73752 28.4325C7.80261 29.402 9.58837 29.9159 10.8223 29.958L11.6277 30L12.0507 29.28L13.5341 26.6522C15.107 27.0075 16.9185 27.2461 18.9999 27.2461C21.0812 27.2461 22.8928 27.0075 24.4657 26.6522L25.949 29.28L26.3734 30L27.1775 29.958C28.4114 29.9159 30.1972 29.402 32.2623 28.4325C34.3287 27.463 36.5579 26.0597 37.8134 23.8563L37.9829 23.5173V23.1783C37.9829 19.1471 37.1667 14.7403 36.1606 11.1024C35.7199 9.48956 35.1824 7.90476 34.5511 6.35661C34.0155 5.06847 33.6765 4.18983 32.8982 3.47525L32.8562 3.43186H32.8128C29.3457 0.646779 24.5931 0.127457 24.5931 0.127457L23.5341 0L23.1518 0.974915C23.1518 0.974915 22.7599 1.96475 22.5172 3.09424C21.3515 2.9334 20.1766 2.84825 18.9999 2.83932C18.2745 2.83932 17.0202 2.88678 15.4826 3.09424C15.2385 1.96475 14.8467 0.974915 14.8467 0.974915L14.4657 0ZM12.6012 3.09424C12.6596 3.28407 12.7179 3.44814 12.7707 3.60271C11.0175 4.03661 9.14769 4.6983 7.43244 5.76271L8.87244 8.05152C12.3897 5.86847 17.4419 5.55119 18.9999 5.55119C20.5565 5.55119 25.6101 5.86847 29.1273 8.05152L30.5673 5.76271C28.8521 4.6983 26.9823 4.03661 25.229 3.60136C25.2819 3.44814 25.3402 3.28407 25.3985 3.09288C26.6636 3.3478 29.0799 3.93085 31.0758 5.50915C31.065 5.51458 31.5843 6.2983 32.0507 7.41559C32.528 8.56542 33.0568 10.0963 33.5341 11.8224C34.4507 15.1322 35.1707 19.1634 35.229 22.7119C34.3748 24.0149 32.7924 25.1905 31.1179 25.9756C30.0677 26.4719 28.9566 26.8275 27.8134 27.0332L27.1355 25.8902C27.5382 25.741 27.9355 25.5783 28.2799 25.4237C30.3667 24.5071 31.5002 23.5173 31.5002 23.5173L29.7199 21.4834C29.7199 21.4834 28.9579 22.1831 27.1775 22.9668C25.3999 23.7505 22.6812 24.5342 18.9999 24.5342C15.3185 24.5342 12.6012 23.7505 10.8223 22.9668C9.04193 22.1831 8.27989 21.4834 8.27989 21.4834L6.49956 23.5173C6.49956 23.5173 7.63311 24.5071 9.71989 25.4237C10.0643 25.5783 10.4616 25.7424 10.8643 25.8902L10.1863 27.0346C9.04257 26.8281 7.93106 26.4715 6.88057 25.9742C5.20735 25.1905 3.62362 24.0149 2.7721 22.7119C2.82905 19.1634 3.54905 15.1322 4.46701 11.8224C4.87264 10.3252 5.36754 8.85363 5.94905 7.41559C6.41549 6.2983 6.93481 5.51458 6.92396 5.50915C8.91989 3.93085 11.3362 3.3478 12.6012 3.09424ZM14.2541 12.3308C13.206 12.3308 12.2785 12.9288 11.7118 13.6868C11.145 14.4447 10.8643 15.3763 10.8643 16.3986C10.8643 17.421 11.145 18.3525 11.7118 19.1105C12.2785 19.8685 13.206 20.4664 14.2541 20.4664C15.3023 20.4664 16.2297 19.8685 16.7965 19.1105C17.3633 18.3525 17.644 17.421 17.644 16.3986C17.644 15.3763 17.3633 14.4447 16.7965 13.6868C16.2297 12.9288 15.3023 12.3308 14.2541 12.3308ZM23.7457 12.3308C22.6975 12.3308 21.7701 12.9288 21.2033 13.6868C20.6365 14.4447 20.3558 15.3763 20.3558 16.3986C20.3558 17.421 20.6365 18.3525 21.2033 19.1105C21.7701 19.8685 22.6975 20.4664 23.7457 20.4664C24.7938 20.4664 25.7212 19.8685 26.288 19.1105C26.8548 18.3525 27.1355 17.421 27.1355 16.3986C27.1355 15.3763 26.8548 14.4447 26.288 13.6868C25.7212 12.9288 24.7938 12.3308 23.7457 12.3308ZM14.2541 15.0427C14.3287 15.0427 14.4236 15.0698 14.5931 15.2976C14.7626 15.5241 14.9321 15.9214 14.9321 16.3986C14.9321 16.8759 14.7626 17.2732 14.5931 17.501C14.4236 17.7275 14.3287 17.7546 14.2541 17.7546C14.1796 17.7546 14.0846 17.7275 13.9151 17.4997C13.6909 17.1766 13.5725 16.7919 13.5762 16.3986C13.5762 15.9214 13.7457 15.5241 13.9151 15.2963C14.0846 15.0698 14.1796 15.0427 14.2541 15.0427ZM23.7457 15.0427C23.8202 15.0427 23.9151 15.0698 24.0846 15.2976C24.2541 15.5241 24.4236 15.9214 24.4236 16.3986C24.4236 16.8759 24.2541 17.2732 24.0846 17.501C23.9151 17.7275 23.8202 17.7546 23.7457 17.7546C23.6711 17.7546 23.5762 17.7275 23.4067 17.4997C23.1824 17.1766 23.064 16.7919 23.0677 16.3986C23.0677 15.9214 23.2372 15.5241 23.4067 15.2963C23.5762 15.0698 23.6711 15.0427 23.7457 15.0427Z" fill="#B2C2CB" stroke="#2E333A" stroke-width="0.8" mask="url(#path-1-inside-1_3566_1584)"/>
</g>
</svg>
